<mxfile host="app.diagrams.net" modified="2021-04-22T10:56:06.960Z" agent="5.0 (Windows NT 6.3; Win64; x64) AppleWebKit/537.36 (KHTML, like Gecko) Chrome/89.0.4389.114 Safari/537.36 OPR/75.0.3969.171" etag="zGWbJtmjoHhMgVN_Ehwd" version="14.6.3" type="github">
  <diagram id="GveNMg5q78UsmyiGZh5K" name="Page-1">
    <mxGraphModel dx="1180" dy="649" grid="1" gridSize="10" guides="1" tooltips="1" connect="1" arrows="1" fold="1" page="1" pageScale="1" pageWidth="1169" pageHeight="1654" math="0" shadow="0">
      <root>
        <mxCell id="0" />
        <mxCell id="1" parent="0" />
        <mxCell id="1YIWR8wUZ5SWNWeQob_Y-1" value="Copiloto" style="shape=umlActor;verticalLabelPosition=bottom;verticalAlign=top;html=1;fillColor=#F694C1;strokeColor=#AF45ED;fontColor=#095C86;" parent="1" vertex="1">
          <mxGeometry x="140" y="720" width="30" height="60" as="geometry" />
        </mxCell>
        <mxCell id="zSkP5wXfmLBFlMabcY_Y-1" value="" style="ellipse;whiteSpace=wrap;html=1;aspect=fixed;fillColor=#ffe6cc;strokeColor=#d79b00;" vertex="1" parent="1">
          <mxGeometry x="330" y="572" width="510" height="510" as="geometry" />
        </mxCell>
        <mxCell id="FUtJq2U_WDQREWEvUmUn-2" value="" style="ellipse;whiteSpace=wrap;html=1;rounded=0;sketch=0;fontFamily=Tahoma;fontSize=14;strokeColor=#82b366;fillColor=#d5e8d4;rotation=90;" parent="1" vertex="1">
          <mxGeometry x="404" y="728" width="361.5" height="197" as="geometry" />
        </mxCell>
        <mxCell id="FUtJq2U_WDQREWEvUmUn-1" value="Sistema de Gestión y Seguimiento de Aeronave de la Fuerza Aérea Mexicana (FAM)" style="ellipse;rounded=0;sketch=0;strokeColor=#6c8ebf;fillColor=#dae8fc;rotation=90;verticalAlign=middle;horizontal=0;fontStyle=0;fontSize=14;fontFamily=Tahoma;align=center;whiteSpace=wrap;" parent="1" vertex="1">
          <mxGeometry x="505" y="747" width="160" height="160" as="geometry" />
        </mxCell>
        <mxCell id="FUtJq2U_WDQREWEvUmUn-3" value="Señales satelitales" style="rounded=1;whiteSpace=wrap;html=1;sketch=0;fontFamily=Tahoma;fontSize=14;strokeColor=#9673a6;fillColor=#e1d5e7;align=center;" parent="1" vertex="1">
          <mxGeometry x="535" y="678" width="100" height="50" as="geometry" />
        </mxCell>
        <mxCell id="FUtJq2U_WDQREWEvUmUn-4" value="Servidor local" style="rounded=1;whiteSpace=wrap;html=1;sketch=0;fontFamily=Tahoma;fontSize=14;strokeColor=#9673a6;fillColor=#e1d5e7;align=center;" parent="1" vertex="1">
          <mxGeometry x="535" y="925" width="100" height="50" as="geometry" />
        </mxCell>
        <mxCell id="zSkP5wXfmLBFlMabcY_Y-2" value="Señales satelitales" style="rounded=1;whiteSpace=wrap;html=1;sketch=0;fontFamily=Tahoma;fontSize=14;strokeColor=#b85450;fillColor=#f8cecc;align=center;" vertex="1" parent="1">
          <mxGeometry x="391" y="692" width="100" height="50" as="geometry" />
        </mxCell>
      </root>
    </mxGraphModel>
  </diagram>
</mxfile>
